<svg width="280" height="280" viewBox="0 0 280 280" fill="none" xmlns="http://www.w3.org/2000/svg">
<path d="M97.4642 43.5697C97.4642 43.5697 124.258 74.2857 181.942 39.1901C233.172 8.02204 255.12 78.4985 249.092 108.821C241.283 148.1 191.536 170.514 207.185 200.618C222.833 230.723 151.414 260.28 125.302 216.48C92.8188 161.993 73.7381 196.84 49.8138 191.881C32.6433 188.323 6.2326 138.353 36.6167 111.545C62.1844 88.9871 53.0963 77.8584 49.7242 67.5019C44.8606 52.5656 70.4974 20.073 97.4642 43.5697Z" fill="#DEE9FF"/>
<path d="M65.607 194.418L204.031 194.194C205.252 194.192 206.461 193.949 207.589 193.48C208.716 193.011 209.74 192.324 210.603 191.459C211.465 190.594 212.148 189.568 212.614 188.439C213.079 187.31 213.318 186.1 213.316 184.879L213.178 99.3745C213.176 98.1532 212.933 96.9443 212.464 95.8167C211.995 94.6891 211.308 93.665 210.443 92.8028C209.578 91.9406 208.552 91.2573 207.423 90.7917C206.294 90.3262 205.084 90.0876 203.863 90.0896L64.5126 90.1078C59.7658 90.1078 55.9683 85.5644 56.1391 81.67V90.328L56.2921 185.132C56.294 186.354 56.5364 187.563 57.0056 188.69C57.4747 189.818 58.1614 190.842 59.0264 191.704C59.8914 192.566 60.9177 193.25 62.0468 193.715C63.1759 194.181 64.3857 194.42 65.607 194.418V194.418Z" fill="#A2BDFF"/>
<path d="M160.084 124.21L213.429 124.124C215.286 124.121 217.068 124.855 218.382 126.166C219.697 127.477 220.438 129.256 220.441 131.112L220.476 153.115C220.48 154.971 219.745 156.753 218.434 158.068C217.124 159.383 215.344 160.123 213.488 160.126L160.142 160.213C159.787 160.213 159.446 160.073 159.194 159.822C158.943 159.571 158.801 159.231 158.8 158.876L158.746 125.552C158.746 125.197 158.886 124.856 159.137 124.604C159.388 124.353 159.728 124.211 160.084 124.21V124.21Z" fill="#418DF9"/>
<path d="M177.408 150.427C181.96 150.427 185.65 146.737 185.65 142.185C185.65 137.634 181.96 133.944 177.408 133.944C172.856 133.944 169.166 137.634 169.166 142.185C169.166 146.737 172.856 150.427 177.408 150.427Z" fill="white"/>
<path d="M63.1392 72.1937H182.711C184.567 72.1937 186.348 72.9312 187.66 74.244C188.973 75.5567 189.711 77.3372 189.711 79.1937V90.1088H65.1351C62.7493 90.1088 60.4611 89.161 58.774 87.474C57.087 85.7869 56.1392 83.4987 56.1392 81.1128V79.1937C56.1392 77.3372 56.8767 75.5567 58.1894 74.244C59.5022 72.9312 61.2826 72.1937 63.1392 72.1937V72.1937Z" fill="#0E84E5"/>
<path d="M156.216 80.0597C156.054 80.0598 155.896 80.0034 155.771 79.9C155.645 79.7966 155.559 79.6528 155.528 79.4932C155.497 79.3336 155.523 79.1681 155.601 79.0253C155.678 78.8825 155.803 78.7711 155.954 78.7104C155.982 78.6988 156.672 78.4216 157.937 77.9562C158.111 77.8921 158.303 77.8998 158.472 77.9777C158.64 78.0556 158.771 78.1972 158.835 78.3714C158.899 78.5457 158.892 78.7382 158.814 78.9068C158.736 79.0753 158.594 79.206 158.42 79.2701C157.175 79.728 156.485 80.0061 156.478 80.0087C156.395 80.0424 156.306 80.0597 156.216 80.0597Z" fill="#418DF9"/>
<path d="M185.511 241.255C185.023 241.255 184.526 241.245 184.033 241.225C183.941 241.222 183.85 241.201 183.766 241.163C183.682 241.124 183.606 241.07 183.543 241.002C183.48 240.935 183.431 240.855 183.399 240.769C183.367 240.682 183.352 240.59 183.356 240.498C183.36 240.406 183.382 240.315 183.42 240.231C183.459 240.148 183.514 240.072 183.582 240.01C183.65 239.947 183.73 239.899 183.817 239.868C183.904 239.836 183.996 239.822 184.088 239.826C185.471 239.882 186.856 239.855 188.235 239.746C188.327 239.739 188.419 239.75 188.506 239.778C188.594 239.806 188.675 239.852 188.745 239.911C188.815 239.971 188.873 240.043 188.914 240.125C188.956 240.207 188.982 240.296 188.989 240.388C188.996 240.48 188.986 240.572 188.957 240.659C188.929 240.747 188.884 240.828 188.824 240.898C188.765 240.968 188.692 241.025 188.61 241.067C188.528 241.109 188.439 241.134 188.347 241.142C187.419 241.217 186.464 241.254 185.511 241.255ZM179.85 240.832C179.816 240.832 179.782 240.83 179.749 240.825C178.383 240.627 176.964 240.355 175.532 240.018C175.351 239.975 175.195 239.863 175.097 239.705C174.999 239.547 174.968 239.357 175.011 239.176C175.054 238.995 175.166 238.839 175.324 238.741C175.482 238.644 175.672 238.613 175.853 238.655C177.246 238.983 178.624 239.247 179.95 239.439C180.125 239.465 180.284 239.555 180.395 239.693C180.506 239.831 180.561 240.006 180.548 240.182C180.536 240.359 180.457 240.524 180.327 240.644C180.198 240.765 180.027 240.832 179.85 240.832V240.832ZM192.476 240.535C192.303 240.535 192.136 240.471 192.008 240.355C191.879 240.239 191.798 240.08 191.78 239.908C191.762 239.736 191.808 239.563 191.91 239.423C192.012 239.283 192.162 239.186 192.331 239.15C193.681 238.861 195.01 238.485 196.311 238.022C196.486 237.96 196.678 237.97 196.846 238.049C197.014 238.129 197.143 238.272 197.205 238.447C197.267 238.622 197.257 238.814 197.178 238.982C197.098 239.15 196.955 239.279 196.78 239.341C195.422 239.824 194.033 240.218 192.623 240.519C192.575 240.529 192.525 240.534 192.476 240.534V240.535ZM171.609 238.914C171.539 238.914 171.468 238.903 171.401 238.882C170.1 238.476 168.741 238.008 167.358 237.489C167.184 237.424 167.043 237.292 166.967 237.123C166.89 236.954 166.883 236.762 166.948 236.588C167.014 236.414 167.145 236.273 167.314 236.196C167.483 236.119 167.676 236.113 167.85 236.178C169.208 236.688 170.542 237.148 171.818 237.546C171.978 237.596 172.114 237.701 172.203 237.843C172.292 237.985 172.326 238.154 172.301 238.319C172.276 238.485 172.192 238.636 172.065 238.745C171.939 238.854 171.777 238.914 171.609 238.914ZM200.432 237.714C200.274 237.714 200.121 237.661 199.998 237.564C199.874 237.466 199.787 237.33 199.75 237.176C199.714 237.023 199.73 236.862 199.796 236.719C199.863 236.576 199.975 236.46 200.116 236.389C201.351 235.764 202.55 235.069 203.707 234.309C203.784 234.257 203.871 234.222 203.961 234.204C204.052 234.186 204.145 234.186 204.236 234.205C204.327 234.223 204.413 234.26 204.489 234.311C204.566 234.363 204.631 234.43 204.682 234.507C204.732 234.584 204.767 234.671 204.784 234.762C204.801 234.853 204.8 234.946 204.781 235.037C204.762 235.127 204.725 235.213 204.672 235.289C204.62 235.365 204.553 235.43 204.475 235.48C203.274 236.269 202.029 236.99 200.747 237.639C200.649 237.688 200.541 237.714 200.432 237.714V237.714ZM163.671 235.955C163.577 235.955 163.483 235.936 163.397 235.899C162.16 235.372 160.851 234.787 159.506 234.16C159.421 234.122 159.346 234.068 159.282 234C159.219 233.932 159.17 233.853 159.138 233.766C159.106 233.679 159.092 233.587 159.095 233.494C159.099 233.402 159.121 233.311 159.16 233.227C159.199 233.143 159.255 233.068 159.323 233.006C159.391 232.943 159.471 232.895 159.559 232.864C159.646 232.833 159.738 232.819 159.83 232.824C159.923 232.828 160.013 232.851 160.097 232.891C161.428 233.512 162.723 234.09 163.946 234.611C164.094 234.674 164.216 234.787 164.291 234.93C164.366 235.073 164.389 235.237 164.357 235.395C164.325 235.553 164.239 235.695 164.114 235.797C163.989 235.899 163.832 235.955 163.671 235.955V235.955ZM207.508 233.099C207.363 233.099 207.222 233.054 207.103 232.97C206.985 232.887 206.896 232.769 206.847 232.632C206.799 232.495 206.794 232.347 206.834 232.208C206.873 232.069 206.955 231.945 207.068 231.854C208.116 231.009 209.17 230.081 210.2 229.098C210.334 228.969 210.514 228.9 210.699 228.904C210.885 228.908 211.061 228.986 211.19 229.12C211.318 229.255 211.387 229.434 211.383 229.62C211.379 229.806 211.301 229.982 211.167 230.11C210.108 231.12 209.025 232.074 207.947 232.944C207.823 233.044 207.668 233.099 207.508 233.099L207.508 233.099ZM155.981 232.387C155.874 232.387 155.767 232.362 155.671 232.314C154.49 231.729 153.249 231.101 151.878 230.394C151.797 230.352 151.724 230.294 151.665 230.224C151.605 230.154 151.56 230.073 151.532 229.985C151.504 229.897 151.494 229.805 151.502 229.714C151.509 229.622 151.535 229.533 151.577 229.451C151.619 229.369 151.677 229.297 151.747 229.237C151.817 229.178 151.898 229.133 151.986 229.105C152.074 229.077 152.166 229.067 152.257 229.074C152.349 229.082 152.438 229.107 152.52 229.15C153.884 229.853 155.118 230.478 156.292 231.059C156.434 231.129 156.548 231.245 156.615 231.388C156.682 231.531 156.699 231.693 156.663 231.846C156.627 232 156.54 232.137 156.416 232.235C156.293 232.333 156.139 232.387 155.981 232.387V232.387ZM148.44 228.51C148.326 228.51 148.215 228.482 148.114 228.429C146.949 227.815 145.778 227.196 144.604 226.571L144.366 226.445C144.283 226.403 144.21 226.344 144.151 226.273C144.091 226.203 144.047 226.121 144.019 226.032C143.991 225.944 143.981 225.851 143.99 225.759C143.999 225.667 144.025 225.577 144.069 225.495C144.112 225.414 144.171 225.341 144.243 225.283C144.314 225.224 144.397 225.18 144.485 225.153C144.574 225.126 144.667 225.118 144.759 225.127C144.851 225.137 144.94 225.164 145.022 225.208L145.26 225.334C146.433 225.957 147.602 226.576 148.767 227.191C148.906 227.264 149.016 227.381 149.08 227.524C149.144 227.667 149.158 227.827 149.12 227.979C149.083 228.13 148.995 228.265 148.872 228.362C148.749 228.458 148.597 228.51 148.44 228.51L148.44 228.51ZM213.635 227.272C213.499 227.272 213.367 227.233 213.253 227.159C213.139 227.085 213.05 226.979 212.995 226.855C212.94 226.731 212.922 226.594 212.944 226.46C212.966 226.326 213.026 226.202 213.117 226.101C214.026 225.101 214.942 224.029 215.839 222.915C215.956 222.773 216.125 222.683 216.308 222.664C216.492 222.645 216.675 222.699 216.819 222.815C216.962 222.931 217.054 223.098 217.075 223.281C217.096 223.465 217.043 223.649 216.929 223.793C216.015 224.929 215.081 226.022 214.153 227.043C214.087 227.115 214.008 227.173 213.918 227.213C213.829 227.252 213.733 227.273 213.635 227.273V227.272ZM140.95 224.548C140.837 224.548 140.725 224.52 140.625 224.467C139.239 223.738 138.012 223.099 136.873 222.514C136.708 222.43 136.583 222.283 136.526 222.106C136.469 221.929 136.485 221.737 136.57 221.571C136.655 221.406 136.802 221.281 136.979 221.225C137.156 221.168 137.348 221.184 137.513 221.268C138.655 221.856 139.886 222.497 141.277 223.228C141.415 223.3 141.525 223.418 141.589 223.56C141.654 223.703 141.668 223.863 141.63 224.015C141.593 224.167 141.505 224.302 141.382 224.399C141.259 224.495 141.107 224.547 140.95 224.547L140.95 224.548ZM218.953 220.69C218.824 220.69 218.697 220.654 218.587 220.587C218.477 220.519 218.388 220.423 218.33 220.308C218.271 220.193 218.245 220.064 218.256 219.935C218.266 219.807 218.311 219.683 218.387 219.579C219.185 218.478 219.99 217.316 220.779 216.122C220.881 215.968 221.041 215.86 221.223 215.823C221.405 215.786 221.594 215.822 221.749 215.925C221.904 216.027 222.012 216.187 222.049 216.369C222.086 216.551 222.049 216.74 221.946 216.895C221.146 218.105 220.33 219.284 219.52 220.401C219.455 220.491 219.37 220.564 219.271 220.614C219.173 220.664 219.064 220.69 218.953 220.69V220.69ZM133.41 220.681C133.302 220.681 133.196 220.656 133.1 220.608C131.766 219.948 130.521 219.347 129.294 218.771C129.128 218.691 129.001 218.548 128.939 218.375C128.878 218.201 128.887 218.01 128.966 217.844C129.044 217.677 129.185 217.548 129.357 217.484C129.53 217.421 129.721 217.428 129.889 217.504C131.125 218.084 132.378 218.689 133.721 219.354C133.862 219.424 133.976 219.54 134.043 219.682C134.111 219.825 134.128 219.987 134.092 220.141C134.056 220.294 133.969 220.431 133.845 220.53C133.721 220.628 133.568 220.681 133.41 220.681V220.681ZM125.728 217.086C125.631 217.086 125.536 217.066 125.448 217.027C124.122 216.449 122.812 215.902 121.554 215.403C121.469 215.369 121.391 215.318 121.325 215.254C121.259 215.19 121.206 215.114 121.17 215.029C121.133 214.945 121.114 214.854 121.112 214.762C121.111 214.67 121.128 214.579 121.162 214.494C121.196 214.408 121.246 214.33 121.31 214.264C121.374 214.198 121.451 214.146 121.535 214.109C121.619 214.073 121.71 214.053 121.802 214.052C121.894 214.051 121.985 214.067 122.071 214.101C123.343 214.606 124.667 215.159 126.008 215.744C126.155 215.809 126.276 215.922 126.35 216.065C126.424 216.208 126.446 216.371 126.413 216.529C126.38 216.686 126.294 216.828 126.169 216.929C126.045 217.031 125.889 217.086 125.728 217.086V217.086ZM117.84 213.964C117.761 213.964 117.683 213.951 117.608 213.924C116.257 213.45 114.91 213.012 113.607 212.622C113.519 212.596 113.437 212.553 113.365 212.495C113.294 212.437 113.235 212.365 113.191 212.284C113.147 212.203 113.12 212.115 113.111 212.023C113.101 211.932 113.11 211.839 113.136 211.751C113.162 211.663 113.206 211.581 113.264 211.51C113.322 211.439 113.393 211.379 113.474 211.336C113.555 211.292 113.644 211.265 113.735 211.255C113.827 211.246 113.919 211.255 114.007 211.281C115.332 211.677 116.7 212.122 118.072 212.603C118.228 212.658 118.359 212.766 118.443 212.909C118.527 213.051 118.558 213.219 118.53 213.382C118.502 213.544 118.418 213.692 118.292 213.799C118.165 213.905 118.005 213.964 117.84 213.964V213.964ZM223.63 213.634C223.506 213.634 223.384 213.601 223.277 213.538C223.17 213.475 223.081 213.385 223.021 213.276C222.96 213.168 222.929 213.046 222.931 212.922C222.934 212.797 222.969 212.676 223.033 212.57C223.744 211.404 224.461 210.182 225.165 208.938C225.21 208.856 225.27 208.783 225.342 208.725C225.415 208.666 225.498 208.623 225.588 208.597C225.677 208.571 225.771 208.564 225.864 208.574C225.956 208.585 226.045 208.615 226.127 208.66C226.208 208.706 226.279 208.768 226.336 208.842C226.393 208.915 226.434 209 226.458 209.09C226.482 209.18 226.488 209.274 226.475 209.366C226.462 209.458 226.431 209.547 226.383 209.627C225.672 210.885 224.947 212.119 224.228 213.299C224.166 213.401 224.078 213.486 223.973 213.545C223.869 213.604 223.75 213.634 223.63 213.634V213.634ZM80.4338 212.041C80.266 212.041 80.1038 211.981 79.9767 211.872C79.8495 211.762 79.766 211.61 79.7413 211.445C79.7166 211.279 79.7523 211.109 79.8419 210.967C79.9315 210.826 80.0691 210.721 80.2297 210.672C81.6 210.253 82.997 209.888 84.3816 209.585C84.563 209.545 84.7527 209.579 84.909 209.68C85.0652 209.78 85.1753 209.938 85.2149 210.12C85.2545 210.301 85.2205 210.491 85.1202 210.647C85.02 210.803 84.8618 210.913 84.6804 210.953C83.3328 211.247 81.9728 211.603 80.6385 212.011C80.5721 212.031 80.5032 212.041 80.4338 212.041V212.041ZM109.715 211.548C109.659 211.548 109.604 211.542 109.551 211.529C108.171 211.198 106.79 210.91 105.447 210.675C105.266 210.64 105.106 210.536 105.002 210.385C104.897 210.234 104.856 210.047 104.888 209.866C104.92 209.685 105.021 209.524 105.171 209.417C105.321 209.31 105.507 209.267 105.688 209.296C107.06 209.536 108.469 209.829 109.877 210.167C110.044 210.207 110.191 210.307 110.289 210.447C110.387 210.588 110.431 210.76 110.41 210.93C110.39 211.1 110.308 211.258 110.18 211.371C110.052 211.485 109.886 211.548 109.715 211.548V211.548ZM88.7019 210.237C88.5242 210.237 88.3532 210.169 88.2235 210.048C88.0938 209.926 88.0152 209.76 88.0036 209.583C87.992 209.405 88.0482 209.23 88.1609 209.093C88.2736 208.956 88.4343 208.866 88.6105 208.843C90.0187 208.656 91.4572 208.524 92.8859 208.453C92.9778 208.448 93.0696 208.462 93.1562 208.493C93.2428 208.524 93.3224 208.571 93.3906 208.633C93.4588 208.695 93.5142 208.769 93.5536 208.852C93.5929 208.935 93.6156 209.025 93.6202 209.117C93.6248 209.209 93.6112 209.301 93.5803 209.387C93.5494 209.474 93.5018 209.554 93.4401 209.622C93.3784 209.69 93.3039 209.745 93.2209 209.785C93.1378 209.824 93.0478 209.847 92.9559 209.851C91.5655 209.921 90.1656 210.048 88.7951 210.231C88.7642 210.235 88.7331 210.237 88.7019 210.237V210.237ZM101.379 210.097C101.355 210.097 101.33 210.096 101.305 210.093C99.909 209.946 98.5053 209.851 97.1351 209.811C96.9494 209.805 96.7736 209.726 96.6463 209.591C96.5189 209.455 96.4505 209.275 96.4561 209.09C96.4617 208.904 96.5407 208.728 96.676 208.601C96.8112 208.473 96.9914 208.405 97.1771 208.411C98.5825 208.453 100.021 208.551 101.452 208.7C101.63 208.719 101.794 208.806 101.91 208.942C102.026 209.078 102.086 209.254 102.077 209.433C102.068 209.611 101.99 209.78 101.86 209.903C101.731 210.027 101.559 210.096 101.379 210.096L101.379 210.097ZM227.807 206.268C227.686 206.268 227.568 206.237 227.463 206.177C227.358 206.118 227.27 206.032 227.207 205.929C227.145 205.825 227.111 205.708 227.108 205.587C227.104 205.466 227.132 205.347 227.189 205.24C227.831 204.028 228.479 202.765 229.115 201.488C229.156 201.406 229.213 201.333 229.282 201.272C229.352 201.212 229.432 201.166 229.519 201.137C229.607 201.108 229.699 201.096 229.79 201.102C229.882 201.109 229.972 201.133 230.054 201.174C230.136 201.215 230.21 201.272 230.27 201.341C230.33 201.41 230.376 201.491 230.406 201.578C230.435 201.665 230.446 201.757 230.44 201.849C230.434 201.941 230.409 202.03 230.368 202.113C229.727 203.4 229.074 204.673 228.426 205.896C228.366 206.008 228.277 206.102 228.168 206.168C228.059 206.234 227.934 206.268 227.807 206.268V206.268ZM231.587 198.689C231.469 198.689 231.353 198.659 231.25 198.602C231.146 198.545 231.059 198.463 230.996 198.364C230.933 198.264 230.896 198.15 230.889 198.032C230.881 197.915 230.904 197.797 230.954 197.69C231.541 196.445 232.133 195.154 232.715 193.853C232.752 193.77 232.806 193.694 232.873 193.631C232.94 193.568 233.018 193.518 233.104 193.485C233.19 193.453 233.282 193.437 233.373 193.44C233.465 193.442 233.556 193.463 233.64 193.5C233.724 193.538 233.799 193.592 233.863 193.658C233.926 193.725 233.975 193.804 234.008 193.89C234.041 193.976 234.056 194.067 234.054 194.159C234.051 194.251 234.03 194.341 233.993 194.425C233.407 195.735 232.811 197.034 232.221 198.287C232.164 198.407 232.075 198.508 231.963 198.58C231.85 198.651 231.721 198.688 231.588 198.688L231.587 198.689ZM235.048 190.958C234.933 190.958 234.819 190.929 234.717 190.874C234.615 190.819 234.528 190.74 234.464 190.644C234.4 190.547 234.362 190.436 234.351 190.321C234.341 190.206 234.359 190.09 234.404 189.983C234.945 188.716 235.492 187.404 236.03 186.084C236.064 185.997 236.114 185.919 236.179 185.852C236.243 185.785 236.32 185.732 236.406 185.696C236.491 185.659 236.583 185.64 236.675 185.639C236.768 185.638 236.86 185.656 236.946 185.691C237.032 185.726 237.11 185.777 237.176 185.843C237.241 185.908 237.293 185.986 237.329 186.072C237.364 186.158 237.382 186.25 237.382 186.342C237.381 186.435 237.362 186.527 237.326 186.612C236.785 187.939 236.235 189.258 235.692 190.532C235.638 190.658 235.549 190.766 235.434 190.842C235.32 190.917 235.186 190.958 235.049 190.958L235.048 190.958ZM238.248 183.114C238.134 183.114 238.022 183.086 237.921 183.033C237.821 182.98 237.734 182.903 237.67 182.809C237.606 182.715 237.566 182.606 237.553 182.493C237.54 182.38 237.555 182.265 237.597 182.159C238.099 180.874 238.608 179.546 239.109 178.212C239.174 178.039 239.306 177.898 239.475 177.821C239.644 177.744 239.836 177.738 240.01 177.803C240.184 177.869 240.325 178 240.401 178.169C240.478 178.339 240.484 178.531 240.419 178.705C239.915 180.044 239.405 181.378 238.9 182.669C238.849 182.8 238.759 182.913 238.643 182.992C238.527 183.071 238.389 183.114 238.249 183.114L238.248 183.114ZM241.23 175.185C241.118 175.185 241.007 175.157 240.907 175.106C240.808 175.054 240.722 174.979 240.657 174.887C240.593 174.795 240.551 174.688 240.537 174.577C240.522 174.466 240.534 174.352 240.572 174.247C241.043 172.946 241.52 171.606 241.99 170.263C242.019 170.175 242.066 170.094 242.127 170.024C242.188 169.955 242.262 169.898 242.345 169.857C242.429 169.816 242.519 169.792 242.612 169.787C242.704 169.781 242.797 169.794 242.884 169.825C242.972 169.855 243.052 169.903 243.121 169.965C243.19 170.027 243.246 170.102 243.286 170.186C243.325 170.269 243.348 170.36 243.352 170.453C243.357 170.545 243.343 170.638 243.311 170.725C242.84 172.072 242.361 173.418 241.889 174.723C241.839 174.858 241.75 174.975 241.632 175.058C241.515 175.14 241.375 175.184 241.231 175.184L241.23 175.185ZM244.022 167.185C243.911 167.185 243.802 167.159 243.703 167.108C243.604 167.057 243.519 166.984 243.454 166.894C243.389 166.804 243.347 166.7 243.33 166.59C243.314 166.48 243.323 166.368 243.359 166.263C243.81 164.913 244.252 163.561 244.671 162.245C244.727 162.068 244.851 161.921 245.016 161.835C245.181 161.75 245.373 161.734 245.55 161.79C245.727 161.846 245.874 161.971 245.96 162.136C246.045 162.301 246.061 162.493 246.005 162.67C245.584 163.992 245.14 165.35 244.686 166.707C244.64 166.846 244.551 166.967 244.432 167.053C244.313 167.138 244.17 167.185 244.023 167.185L244.022 167.185ZM246.592 159.11C246.483 159.11 246.375 159.085 246.278 159.036C246.18 158.987 246.095 158.915 246.03 158.828C245.965 158.74 245.921 158.638 245.903 158.531C245.884 158.423 245.89 158.313 245.922 158.208C246.331 156.85 246.729 155.486 247.106 154.153C247.157 153.974 247.276 153.823 247.438 153.732C247.6 153.641 247.792 153.619 247.971 153.669C248.149 153.72 248.3 153.839 248.391 154.001C248.482 154.163 248.504 154.355 248.454 154.534C248.075 155.874 247.674 157.247 247.262 158.612C247.219 158.756 247.131 158.882 247.01 158.972C246.889 159.062 246.743 159.11 246.593 159.11L246.592 159.11ZM248.896 150.956C248.789 150.956 248.683 150.931 248.587 150.884C248.49 150.837 248.406 150.768 248.341 150.683C248.276 150.598 248.23 150.5 248.209 150.395C248.188 150.29 248.191 150.181 248.218 150.078C248.58 148.703 248.927 147.325 249.25 145.983C249.295 145.804 249.409 145.65 249.567 145.554C249.725 145.459 249.914 145.429 250.094 145.473C250.273 145.516 250.428 145.628 250.525 145.785C250.622 145.942 250.653 146.131 250.611 146.311C250.286 147.662 249.936 149.049 249.572 150.433C249.533 150.583 249.445 150.715 249.323 150.809C249.201 150.904 249.051 150.955 248.896 150.955L248.896 150.956ZM250.88 142.718C250.775 142.718 250.672 142.694 250.577 142.649C250.483 142.604 250.4 142.538 250.334 142.457C250.269 142.376 250.222 142.28 250.198 142.179C250.174 142.077 250.173 141.971 250.195 141.869C250.498 140.478 250.783 139.088 251.043 137.735C251.06 137.644 251.094 137.557 251.145 137.48C251.195 137.402 251.26 137.336 251.336 137.284C251.413 137.231 251.499 137.195 251.589 137.176C251.679 137.157 251.773 137.157 251.864 137.174C251.954 137.191 252.041 137.227 252.118 137.278C252.195 137.329 252.261 137.394 252.313 137.471C252.364 137.548 252.4 137.634 252.418 137.725C252.436 137.815 252.436 137.909 252.418 137.999C252.156 139.363 251.868 140.765 251.564 142.166C251.53 142.322 251.443 142.462 251.319 142.563C251.195 142.663 251.04 142.717 250.88 142.718V142.718ZM252.475 134.396C252.373 134.396 252.273 134.374 252.181 134.331C252.089 134.289 252.007 134.227 251.941 134.149C251.875 134.072 251.827 133.981 251.8 133.883C251.773 133.785 251.767 133.683 251.783 133.583C252.014 132.175 252.223 130.772 252.404 129.413C252.415 129.321 252.444 129.232 252.49 129.152C252.536 129.071 252.597 129.001 252.67 128.944C252.744 128.887 252.827 128.846 252.917 128.822C253.006 128.798 253.099 128.792 253.191 128.804C253.283 128.816 253.371 128.846 253.451 128.893C253.531 128.939 253.601 129.002 253.657 129.075C253.713 129.149 253.754 129.233 253.777 129.323C253.8 129.413 253.805 129.506 253.792 129.598C253.61 130.971 253.398 132.388 253.165 133.809C253.138 133.973 253.054 134.121 252.928 134.229C252.802 134.336 252.642 134.396 252.476 134.396H252.475ZM253.587 125.997C253.564 125.997 253.541 125.996 253.517 125.994C253.426 125.985 253.337 125.958 253.256 125.914C253.175 125.871 253.103 125.812 253.045 125.741C252.986 125.67 252.943 125.588 252.916 125.5C252.889 125.412 252.88 125.32 252.889 125.228C253.029 123.811 253.141 122.399 253.224 121.032C253.235 120.847 253.319 120.673 253.458 120.55C253.597 120.427 253.779 120.364 253.964 120.375C254.15 120.386 254.323 120.471 254.446 120.61C254.569 120.748 254.632 120.931 254.621 121.116C254.538 122.501 254.424 123.93 254.283 125.366C254.266 125.539 254.185 125.699 254.057 125.815C253.928 125.932 253.761 125.997 253.588 125.997H253.587ZM254.087 117.541H254.076C253.984 117.54 253.893 117.52 253.809 117.484C253.724 117.447 253.648 117.394 253.584 117.328C253.52 117.262 253.47 117.184 253.436 117.099C253.402 117.013 253.386 116.922 253.387 116.83C253.395 116.336 253.399 115.844 253.399 115.365C253.399 114.446 253.385 113.526 253.355 112.628C253.351 112.536 253.365 112.443 253.397 112.356C253.429 112.27 253.478 112.19 253.541 112.122C253.604 112.054 253.679 111.999 253.764 111.961C253.848 111.922 253.939 111.901 254.031 111.898C254.124 111.895 254.216 111.91 254.302 111.943C254.389 111.976 254.468 112.026 254.535 112.089C254.603 112.153 254.656 112.229 254.694 112.314C254.732 112.398 254.752 112.489 254.754 112.582C254.784 113.495 254.799 114.431 254.799 115.365C254.799 115.851 254.795 116.352 254.787 116.853C254.784 117.036 254.709 117.211 254.578 117.339C254.447 117.468 254.271 117.54 254.088 117.541L254.087 117.541ZM253.796 109.081C253.622 109.08 253.454 109.015 253.325 108.897C253.196 108.779 253.116 108.617 253.1 108.443C252.972 107.026 252.801 105.628 252.592 104.288C252.576 104.197 252.579 104.103 252.6 104.013C252.621 103.923 252.66 103.837 252.714 103.762C252.768 103.687 252.836 103.623 252.915 103.575C252.994 103.526 253.082 103.494 253.174 103.479C253.265 103.465 253.359 103.469 253.449 103.491C253.539 103.513 253.624 103.553 253.698 103.608C253.773 103.663 253.836 103.733 253.883 103.812C253.931 103.892 253.962 103.98 253.975 104.072C254.189 105.442 254.364 106.87 254.494 108.318C254.503 108.409 254.493 108.502 254.465 108.589C254.438 108.677 254.394 108.759 254.335 108.829C254.276 108.9 254.203 108.958 254.122 109.001C254.041 109.043 253.952 109.069 253.86 109.078C253.839 109.079 253.818 109.08 253.797 109.08L253.796 109.081ZM252.476 100.727C252.318 100.727 252.165 100.674 252.042 100.575C251.918 100.477 251.831 100.34 251.795 100.187C251.472 98.8086 251.095 97.4568 250.673 96.1711C250.642 96.0832 250.629 95.99 250.634 95.897C250.64 95.804 250.664 95.713 250.705 95.6294C250.746 95.5458 250.804 95.4712 250.874 95.4101C250.945 95.349 251.027 95.3026 251.115 95.2736C251.204 95.2445 251.297 95.2334 251.39 95.241C251.483 95.2486 251.573 95.2746 251.656 95.3176C251.739 95.3606 251.812 95.4197 251.872 95.4913C251.931 95.563 251.976 95.6459 252.003 95.735C252.437 97.0597 252.826 98.4499 253.158 99.8673C253.182 99.9701 253.183 100.077 253.16 100.18C253.137 100.283 253.09 100.379 253.025 100.462C252.959 100.545 252.876 100.612 252.781 100.658C252.686 100.703 252.581 100.727 252.476 100.727H252.476ZM249.83 92.7022C249.694 92.7023 249.561 92.6628 249.447 92.5886C249.334 92.5143 249.244 92.4086 249.189 92.2842C248.632 91.0161 248.006 89.7794 247.314 88.5795C247.225 88.419 247.203 88.2302 247.253 88.0537C247.302 87.8772 247.418 87.7269 247.577 87.6353C247.736 87.5436 247.924 87.5179 248.101 87.5636C248.279 87.6092 248.431 87.7226 248.526 87.8795C249.243 89.1236 249.893 90.4058 250.47 91.7205C250.517 91.8271 250.537 91.9436 250.528 92.0597C250.518 92.1757 250.48 92.2876 250.416 92.3851C250.353 92.4827 250.266 92.5628 250.163 92.6183C250.061 92.6738 249.947 92.7029 249.83 92.7029V92.7022ZM245.593 85.399C245.484 85.3991 245.377 85.3739 245.28 85.3253C245.182 85.2767 245.097 85.206 245.032 85.119C244.204 84.0129 243.308 82.9592 242.349 81.9638C242.22 81.8301 242.15 81.6507 242.153 81.4651C242.157 81.2795 242.234 81.1028 242.367 80.974C242.501 80.8452 242.68 80.7747 242.866 80.7781C243.052 80.7815 243.228 80.8585 243.357 80.9922C244.356 82.0294 245.29 83.1273 246.153 84.2797C246.231 84.3837 246.278 84.5073 246.29 84.6368C246.302 84.7663 246.277 84.8965 246.219 85.0127C246.161 85.129 246.071 85.2268 245.961 85.2951C245.85 85.3635 245.723 85.3997 245.593 85.3997L245.593 85.399ZM239.733 79.3213C239.573 79.3214 239.418 79.2665 239.294 79.1658C238.217 78.2969 237.089 77.4929 235.917 76.7578C235.759 76.6591 235.648 76.5019 235.606 76.321C235.565 76.14 235.597 75.95 235.696 75.7927C235.794 75.6355 235.952 75.5239 236.133 75.4825C236.314 75.4411 236.504 75.4733 236.661 75.572C237.88 76.3366 239.053 77.1729 240.174 78.0766C240.286 78.1676 240.368 78.2912 240.407 78.4306C240.447 78.5699 240.442 78.718 240.393 78.8545C240.345 78.991 240.256 79.1092 240.137 79.1927C240.019 79.2763 239.878 79.3211 239.733 79.321V79.3213ZM162.176 77.9122C162.01 77.9123 161.849 77.8532 161.722 77.7456C161.596 77.638 161.511 77.4888 161.485 77.3248C161.458 77.1608 161.49 76.9926 161.576 76.8503C161.662 76.7081 161.796 76.601 161.954 76.5483C163.274 76.1055 164.638 75.6673 166.007 75.2463C166.095 75.2177 166.188 75.2069 166.28 75.2146C166.373 75.2223 166.463 75.2483 166.545 75.2911C166.628 75.3339 166.701 75.3926 166.76 75.4639C166.819 75.5351 166.864 75.6175 166.891 75.7062C166.919 75.7949 166.928 75.8881 166.919 75.9804C166.91 76.0728 166.883 76.1624 166.839 76.2441C166.795 76.3258 166.735 76.3979 166.663 76.4563C166.591 76.5147 166.508 76.5581 166.419 76.5842C165.061 77.0025 163.708 77.4372 162.398 77.8762C162.327 77.9002 162.252 77.9124 162.176 77.9122V77.9122ZM170.278 75.4146C170.109 75.4146 169.946 75.3535 169.818 75.2424C169.691 75.1314 169.608 74.9779 169.585 74.8104C169.561 74.6429 169.6 74.4727 169.692 74.3312C169.785 74.1898 169.926 74.0866 170.088 74.0408C171.452 73.6556 172.835 73.2828 174.198 72.9327C174.377 72.8886 174.566 72.917 174.724 73.0117C174.882 73.1064 174.997 73.2597 175.043 73.4383C175.089 73.6169 175.062 73.8063 174.969 73.9656C174.876 74.1248 174.724 74.2409 174.546 74.2886C173.194 74.6359 171.822 75.0059 170.469 75.3881C170.407 75.4057 170.343 75.4146 170.278 75.4146H170.278ZM232.584 74.8188C232.478 74.8187 232.374 74.7948 232.279 74.7488C231.059 74.1584 229.768 73.6128 228.443 73.1269C228.27 73.062 228.13 72.9314 228.053 72.7634C227.976 72.5954 227.968 72.4037 228.032 72.2302C228.095 72.0567 228.225 71.9153 228.393 71.8371C228.56 71.7588 228.752 71.75 228.926 71.8125C230.293 72.3142 231.626 72.8781 232.889 73.4883C233.031 73.5574 233.146 73.6728 233.215 73.8157C233.283 73.9586 233.301 74.1205 233.266 74.275C233.23 74.4294 233.144 74.5673 233.02 74.666C232.896 74.7647 232.742 74.8184 232.583 74.8183L232.584 74.8188ZM178.49 73.3068C178.318 73.3068 178.152 73.2435 178.023 73.1289C177.895 73.0143 177.813 72.8566 177.794 72.6857C177.775 72.5148 177.819 72.3427 177.918 72.2023C178.017 72.0619 178.165 71.9631 178.333 71.9245C179.722 71.6039 181.122 71.2999 182.493 71.0208C182.675 70.9838 182.864 71.0206 183.019 71.1231C183.173 71.2255 183.281 71.3853 183.318 71.5673C183.355 71.7492 183.318 71.9384 183.216 72.0932C183.114 72.248 182.954 72.3558 182.772 72.3928C181.413 72.6696 180.025 72.9712 178.647 73.2888C178.596 73.3006 178.543 73.3064 178.49 73.3062L178.49 73.3068ZM224.648 71.8907C224.586 71.8906 224.524 71.8824 224.464 71.8662C223.154 71.5117 221.783 71.1972 220.387 70.9317C220.296 70.9155 220.209 70.8813 220.131 70.8312C220.053 70.7811 219.986 70.716 219.933 70.6397C219.88 70.5635 219.843 70.4775 219.824 70.3868C219.805 70.2962 219.804 70.2026 219.822 70.1116C219.839 70.0206 219.874 69.9339 219.925 69.8566C219.976 69.7792 220.042 69.7128 220.119 69.6612C220.196 69.6096 220.283 69.5737 220.373 69.5557C220.464 69.5377 220.558 69.538 220.649 69.5564C222.079 69.8286 223.486 70.151 224.83 70.5147C224.994 70.5589 225.136 70.6611 225.23 70.8023C225.325 70.9435 225.364 71.1142 225.342 71.2824C225.32 71.4507 225.237 71.6052 225.109 71.7171C224.982 71.829 224.818 71.8907 224.648 71.8907H224.648ZM186.796 71.6185C186.62 71.6184 186.452 71.5527 186.323 71.4342C186.194 71.3157 186.114 71.1531 186.099 70.9786C186.084 70.804 186.134 70.6302 186.241 70.4914C186.348 70.3526 186.503 70.2589 186.676 70.2289C188.087 69.9823 189.502 69.7566 190.882 69.558C191.066 69.5315 191.253 69.5792 191.402 69.6905C191.55 69.8017 191.649 69.9675 191.675 70.1513C191.702 70.3351 191.654 70.5219 191.543 70.6705C191.431 70.8192 191.266 70.9175 191.082 70.944C189.715 71.1407 188.314 71.364 186.917 71.6083C186.877 71.6149 186.837 71.6181 186.796 71.6179L186.796 71.6185ZM195.183 70.4158C195.004 70.4156 194.831 70.3469 194.702 70.2238C194.572 70.1007 194.494 69.9325 194.484 69.7538C194.474 69.5751 194.533 69.3995 194.649 69.263C194.765 69.1265 194.929 69.0395 195.107 69.02C196.537 68.8618 197.965 68.7297 199.35 68.628C199.536 68.6143 199.719 68.6747 199.859 68.7959C200 68.9172 200.086 69.0893 200.1 69.2745C200.114 69.4596 200.053 69.6426 199.932 69.7832C199.811 69.9238 199.639 70.0105 199.454 70.0242C198.085 70.1253 196.674 70.2556 195.26 70.4118C195.235 70.4144 195.209 70.4155 195.183 70.4152L195.183 70.4158ZM216.332 70.2944C216.303 70.2943 216.274 70.2926 216.246 70.2892C214.894 70.1241 213.488 69.9952 212.066 69.905C211.974 69.8996 211.884 69.876 211.801 69.8357C211.718 69.7953 211.644 69.739 211.583 69.67C211.522 69.601 211.475 69.5206 211.445 69.4334C211.415 69.3463 211.403 69.2541 211.409 69.1621C211.415 69.0701 211.438 68.9802 211.479 68.8975C211.52 68.8148 211.576 68.741 211.646 68.6802C211.715 68.6194 211.795 68.5729 211.883 68.5433C211.97 68.5137 212.062 68.5017 212.154 68.5078C213.603 68.5994 215.037 68.7318 216.416 68.8998C216.593 68.9212 216.755 69.0094 216.869 69.1464C216.984 69.2834 217.041 69.4588 217.031 69.6369C217.02 69.8149 216.941 69.9822 216.812 70.1045C216.682 70.2268 216.51 70.2948 216.332 70.2948V70.2944ZM203.634 69.7971C203.448 69.8001 203.269 69.7293 203.135 69.6002C203.002 69.4711 202.925 69.2942 202.922 69.1086C202.919 68.9229 202.99 68.7437 203.119 68.6102C203.248 68.4768 203.425 68.4001 203.611 68.3971C204.685 68.3613 205.758 68.3429 206.8 68.3429C207.167 68.34 207.522 68.345 207.882 68.3494C208.067 68.3505 208.245 68.4253 208.376 68.5573C208.506 68.6894 208.579 68.8678 208.578 69.0535C208.577 69.2391 208.502 69.4168 208.37 69.5473C208.238 69.6778 208.059 69.7505 207.874 69.7494H207.865C207.513 69.7452 207.16 69.7431 206.806 69.7431H206.8C205.774 69.7431 204.716 69.761 203.657 69.7964C203.65 69.7964 203.642 69.7965 203.634 69.7965L203.634 69.7971Z" fill="#418DF9"/>
<path d="M74.3767 214.291C74.2159 214.291 74.06 214.236 73.9351 214.135C73.8102 214.034 73.724 213.892 73.691 213.735C73.6579 213.578 73.6801 213.414 73.7537 213.271C73.8273 213.128 73.9479 213.015 74.0952 212.95C74.7442 212.666 75.4045 212.39 76.0579 212.132C76.1434 212.098 76.2347 212.082 76.3266 212.083C76.4185 212.085 76.5092 212.104 76.5936 212.141C76.6779 212.177 76.7542 212.23 76.8182 212.296C76.8821 212.362 76.9324 212.44 76.9662 212.526C77 212.611 77.0166 212.703 77.0151 212.795C77.0136 212.886 76.994 212.977 76.9575 213.062C76.9209 213.146 76.8681 213.222 76.8021 213.286C76.736 213.35 76.658 213.4 76.5725 213.434C75.9352 213.686 75.2908 213.955 74.6574 214.232C74.569 214.271 74.4734 214.291 74.3767 214.291V214.291Z" fill="#418DF9"/>
<path d="M66.266 215C67.3317 214.731 67.8053 212.966 67.3236 211.057C66.842 209.149 65.5875 207.82 64.5218 208.089C63.456 208.358 62.9825 210.123 63.4641 212.031C63.9458 213.94 65.2002 215.269 66.266 215Z" fill="#A2BDFF"/>
<path d="M70.3063 225.153C71.3334 224.761 71.5975 222.953 70.8963 221.114C70.195 219.274 68.7939 218.101 67.7669 218.493C66.7398 218.884 66.4757 220.693 67.1769 222.532C67.8782 224.371 69.2793 225.544 70.3063 225.153Z" fill="#A2BDFF"/>
<path d="M66.7389 218.35C67.5518 218.35 68.2107 217.691 68.2107 216.878C68.2107 216.065 67.5518 215.406 66.7389 215.406C65.926 215.406 65.2671 216.065 65.2671 216.878C65.2671 217.691 65.926 218.35 66.7389 218.35Z" fill="#0E84E5"/>
</svg>
