<svg width="220" height="102" viewBox="0 0 220 102" fill="none" xmlns="http://www.w3.org/2000/svg">
<circle cx="9.07456" cy="51.4225" r="9.07456" fill="#0673A1" fill-opacity="0.33"/>
<circle cx="9.07456" cy="51.4225" r="8.75145" stroke="#0673A1" stroke-opacity="0.63" stroke-width="0.646219"/>
<rect x="3.78101" y="6.04971" width="160.317" height="18.1491" rx="7.75463" fill="#0673A1" fill-opacity="0.33"/>
<rect x="58.9846" y="42.3479" width="160.317" height="18.1491" rx="7.75463" fill="#0673A1" fill-opacity="0.33"/>
<rect x="28.7361" y="79.4023" width="110.407" height="18.1491" rx="7.75463" fill="#0673A1" fill-opacity="0.33"/>
<rect x="4.9432" y="22.7967" width="96.369" height="63.0957" rx="4.20043" transform="rotate(-12.9733 4.9432 22.7967)" fill="#ADD1E0" stroke="#0673A1" stroke-width="1.93866"/>
<rect x="56.1728" y="37.2675" width="96.369" height="63.0957" rx="4.20043" fill="#ADD1E0" stroke="#0673A1" stroke-width="1.93866"/>
<rect x="57.4722" y="53.6911" width="93.7704" height="13.6118" fill="#ADD1E0"/>
<path d="M57.4722 53.6911H93.0142M96.4171 53.6911H105.114M108.517 53.6911H143.302M150.864 67.3029H125.909M117.213 67.3029H74.1089" stroke="#0673A1" stroke-width="1.93866" stroke-linecap="round"/>
<circle cx="173.173" cy="88.4769" r="9.07456" fill="#0673A1" fill-opacity="0.33"/>
<circle cx="173.173" cy="88.4769" r="8.75145" stroke="#0673A1" stroke-opacity="0.63" stroke-width="0.646219"/>
<circle cx="191.322" cy="15.1243" r="9.07456" fill="#0673A1" fill-opacity="0.33"/>
</svg>
