<svg width="34" height="27" viewBox="0 0 34 27" fill="none" xmlns="http://www.w3.org/2000/svg">
<g clip-path="url(#clip0)">
<path d="M0.97325 13.4884L10.2 11.8104L5.35075 15.4327C4.81525 15.9643 5.19456 16.8729 5.95159 16.8729H17.7825C17.281 15.4807 17 14.0004 17 12.4759V10.2468L10.6393 5.62729C9.37391 4.78986 7.70206 4.88848 6.54553 5.86934L0.308656 12.0045C-0.349031 12.5492 0.125375 13.6086 0.97325 13.4884V13.4884ZM30.557 15.2866L25.2094 12.6336C24.7859 12.4234 24.4298 12.1004 24.1809 11.7006C23.9319 11.3008 23.8001 10.8402 23.8 10.3702V8.43539H27.2L28.6923 9.62877C29.011 9.94518 29.4435 10.1229 29.8945 10.1229H31.5398C31.8555 10.1229 32.1649 10.0356 32.4335 9.87082C32.702 9.70606 32.919 9.47032 33.0602 9.19002L33.8204 7.68076C33.9616 7.40046 34.0214 7.08669 33.993 6.77458C33.9647 6.46247 33.8494 6.16436 33.66 5.91363L29.7006 0.672891C29.3792 0.247852 28.8756 0 28.3406 0H15.7261C15.3473 0 15.1576 0.451934 15.4254 0.717715L18.7 3.37289L15.5348 4.68281C15.2214 4.83838 15.2214 5.28188 15.5348 5.43744L18.7 6.74789V12.4759C18.7 16.277 20.6141 19.8265 23.8 21.9354C13.4093 22.2945 5.49525 24.098 0.738438 25.1474C0.307062 25.2424 0 25.6226 0 26.0613C0 26.5781 0.422344 27 0.9435 27H27.4571C30.8194 27.0005 33.8114 24.492 33.991 21.1591C34.1248 18.6659 32.7834 16.392 30.557 15.2866ZM25.9877 3.49365L28.4128 4.09535C28.2668 4.67068 27.7504 5.0915 27.1309 5.05828C26.4424 5.02084 25.7577 4.39752 25.9877 3.49365V3.49365Z" fill="#0673A1"/>
</g>
<defs>
<clipPath id="clip0">
<rect width="34" height="27" fill="white"/>
</clipPath>
</defs>
</svg>
